<svg xmlns="http://www.w3.org/2000/svg" version="1.2" viewBox="0 0 554.718 135.316" height="180.422" width="739.625"><defs><clipPath id="a"><path d="M502 63h34v94h-34zm0 0"/></clipPath><clipPath id="b"><path d="M534.793 63.387l-25.848 8.937c-.32.11-.5.41-.414.715 1.645 5.73 14.926 57.293-6.07 83.613 27.46-14.172 32.766-83.863 33.242-92.675.02-.364-.3-.633-.664-.633a.777.777 0 0 0-.246.043"/></clipPath><linearGradient gradientTransform="scale(97.19437) rotate(-60 3.84 -3.59)" x2="1.003" gradientUnits="userSpaceOnUse" id="c"><stop offset="0" stop-color="#f15a26"/><stop offset=".016" stop-color="#f15a26"/><stop offset=".023" stop-color="#f15b26"/><stop offset=".031" stop-color="#f15c26"/><stop offset=".039" stop-color="#f15c26"/><stop offset=".047" stop-color="#f15d26"/><stop offset=".055" stop-color="#f15e26"/><stop offset=".063" stop-color="#f15e26"/><stop offset=".07" stop-color="#f15f26"/><stop offset=".078" stop-color="#f15f26"/><stop offset=".086" stop-color="#f16026"/><stop offset=".094" stop-color="#f26126"/><stop offset=".098" stop-color="#f26226"/><stop offset=".102" stop-color="#f26326"/><stop offset=".105" stop-color="#f26326"/><stop offset=".109" stop-color="#f26425"/><stop offset=".113" stop-color="#f26425"/><stop offset=".117" stop-color="#f26426"/><stop offset=".121" stop-color="#f26425"/><stop offset=".125" stop-color="#f26525"/><stop offset=".129" stop-color="#f26525"/><stop offset=".133" stop-color="#f26625"/><stop offset=".137" stop-color="#f26725"/><stop offset=".141" stop-color="#f26725"/><stop offset=".145" stop-color="#f26825"/><stop offset=".148" stop-color="#f26825"/><stop offset=".152" stop-color="#f26925"/><stop offset=".156" stop-color="#f26a25"/><stop offset=".16" stop-color="#f26a25"/><stop offset=".164" stop-color="#f26a25"/><stop offset=".168" stop-color="#f36b25"/><stop offset=".172" stop-color="#f36b25"/><stop offset=".176" stop-color="#f36c25"/><stop offset=".18" stop-color="#f36d25"/><stop offset=".184" stop-color="#f36d25"/><stop offset=".188" stop-color="#f36e25"/><stop offset=".191" stop-color="#f36e24"/><stop offset=".195" stop-color="#f36e24"/><stop offset=".199" stop-color="#f36f24"/><stop offset=".203" stop-color="#f37024"/><stop offset=".207" stop-color="#f37024"/><stop offset=".211" stop-color="#f37124"/><stop offset=".215" stop-color="#f37124"/><stop offset=".219" stop-color="#f37124"/><stop offset=".223" stop-color="#f37224"/><stop offset=".227" stop-color="#f37324"/><stop offset=".23" stop-color="#f37424"/><stop offset=".234" stop-color="#f37424"/><stop offset=".238" stop-color="#f47424"/><stop offset=".242" stop-color="#f47524"/><stop offset=".246" stop-color="#f47624"/><stop offset=".25" stop-color="#f47623"/><stop offset=".254" stop-color="#f47723"/><stop offset=".258" stop-color="#f47723"/><stop offset=".262" stop-color="#f47823"/><stop offset=".266" stop-color="#f47823"/><stop offset=".27" stop-color="#f47923"/><stop offset=".273" stop-color="#f47a23"/><stop offset=".277" stop-color="#f47a23"/><stop offset=".281" stop-color="#f47b23"/><stop offset=".285" stop-color="#f47b23"/><stop offset=".289" stop-color="#f47c23"/><stop offset=".293" stop-color="#f47c23"/><stop offset=".297" stop-color="#f47d23"/><stop offset=".301" stop-color="#f57e23"/><stop offset=".305" stop-color="#f57e22"/><stop offset=".309" stop-color="#f57e22"/><stop offset=".313" stop-color="#f57f22"/><stop offset=".316" stop-color="#f58022"/><stop offset=".32" stop-color="#f58122"/><stop offset=".324" stop-color="#f58122"/><stop offset=".328" stop-color="#f58122"/><stop offset=".332" stop-color="#f58222"/><stop offset=".336" stop-color="#f58322"/><stop offset=".34" stop-color="#f58322"/><stop offset=".344" stop-color="#f58422"/><stop offset=".348" stop-color="#f68522"/><stop offset=".352" stop-color="#f68622"/><stop offset=".355" stop-color="#f68621"/><stop offset=".359" stop-color="#f68621"/><stop offset=".363" stop-color="#f68721"/><stop offset=".367" stop-color="#f68821"/><stop offset=".371" stop-color="#f68821"/><stop offset=".375" stop-color="#f68920"/><stop offset=".379" stop-color="#f68a20"/><stop offset=".383" stop-color="#f68a20"/><stop offset=".387" stop-color="#f68b20"/><stop offset=".391" stop-color="#f68c20"/><stop offset=".395" stop-color="#f68c20"/><stop offset=".398" stop-color="#f78c20"/><stop offset=".402" stop-color="#f78d20"/><stop offset=".406" stop-color="#f78e1f"/><stop offset=".41" stop-color="#f78f1f"/><stop offset=".414" stop-color="#f78f1f"/><stop offset=".418" stop-color="#f7901f"/><stop offset=".422" stop-color="#f7911f"/><stop offset=".426" stop-color="#f7911f"/><stop offset=".43" stop-color="#f7921f"/><stop offset=".434" stop-color="#f7931f"/><stop offset=".438" stop-color="#f7931f"/><stop offset=".441" stop-color="#f7941e"/><stop offset=".445" stop-color="#f8951e"/><stop offset=".449" stop-color="#f8951e"/><stop offset=".453" stop-color="#f8961d"/><stop offset=".457" stop-color="#f8971d"/><stop offset=".461" stop-color="#f8981d"/><stop offset=".465" stop-color="#f8981d"/><stop offset=".469" stop-color="#f8981d"/><stop offset=".473" stop-color="#f8991d"/><stop offset=".477" stop-color="#f89a1d"/><stop offset=".48" stop-color="#f89a1d"/><stop offset=".484" stop-color="#f99b1d"/><stop offset=".488" stop-color="#f99c1c"/><stop offset=".492" stop-color="#f99d1c"/><stop offset=".496" stop-color="#f99d1b"/><stop offset=".5" stop-color="#f99e1b"/><stop offset=".504" stop-color="#f99f1b"/><stop offset=".508" stop-color="#f99f1b"/><stop offset=".512" stop-color="#f9a01b"/><stop offset=".516" stop-color="#f9a11a"/><stop offset=".531" stop-color="#f9a11a"/><stop offset=".563" stop-color="#f9a11a"/><stop offset=".625" stop-color="#f9a11a"/><stop offset=".75" stop-color="#f9a11a"/><stop offset="1" stop-color="#f9a11a"/></linearGradient><clipPath id="d"><path d="M504 71h61v87h-61zm0 0"/></clipPath><clipPath id="e"><path d="M564.129 71.25l-25.668 7.23c-.27.075-.457.282-.473.54-.304 5.226-4.101 58.902-33.117 78.199 30.68-5.735 56.625-75.492 60.094-85.196.148-.414-.2-.8-.633-.8a.746.746 0 0 0-.203.027"/></clipPath><linearGradient gradientTransform="rotate(-60 390.26 -359.586) scale(104.30158)" x2="1.003" gradientUnits="userSpaceOnUse" id="f"><stop offset="0" stop-color="#3d3e3d"/><stop offset=".5" stop-color="#3d3e3d"/><stop offset=".516" stop-color="#3d3e3d"/><stop offset=".52" stop-color="#3e3e3e"/><stop offset=".523" stop-color="#3f3f3f"/><stop offset=".527" stop-color="#3f3f3f"/><stop offset=".531" stop-color="#404040"/><stop offset=".535" stop-color="#414140"/><stop offset=".539" stop-color="#414241"/><stop offset=".543" stop-color="#424242"/><stop offset=".547" stop-color="#434342"/><stop offset=".551" stop-color="#444443"/><stop offset=".555" stop-color="#454444"/><stop offset=".559" stop-color="#454544"/><stop offset=".563" stop-color="#464645"/><stop offset=".566" stop-color="#474646"/><stop offset=".57" stop-color="#484746"/><stop offset=".574" stop-color="#484847"/><stop offset=".578" stop-color="#494948"/><stop offset=".582" stop-color="#4a4948"/><stop offset=".586" stop-color="#4b4a49"/><stop offset=".59" stop-color="#4c4b49"/><stop offset=".594" stop-color="#4c4c4a"/><stop offset=".598" stop-color="#4d4c4b"/><stop offset=".602" stop-color="#4e4d4b"/><stop offset=".605" stop-color="#4f4e4c"/><stop offset=".609" stop-color="#504e4c"/><stop offset=".613" stop-color="#504f4d"/><stop offset=".617" stop-color="#51504e"/><stop offset=".621" stop-color="#52514f"/><stop offset=".625" stop-color="#53524f"/><stop offset=".629" stop-color="#535250"/><stop offset=".633" stop-color="#545351"/><stop offset=".637" stop-color="#545351"/><stop offset=".641" stop-color="#555452"/><stop offset=".645" stop-color="#565552"/><stop offset=".648" stop-color="#575653"/><stop offset=".652" stop-color="#585654"/><stop offset=".656" stop-color="#595755"/><stop offset=".66" stop-color="#5a5855"/><stop offset=".664" stop-color="#5a5956"/><stop offset=".668" stop-color="#5b5956"/><stop offset=".672" stop-color="#5b5a57"/><stop offset=".676" stop-color="#5c5a58"/><stop offset=".68" stop-color="#5d5b58"/><stop offset=".684" stop-color="#5e5c59"/><stop offset=".688" stop-color="#5e5c59"/><stop offset=".691" stop-color="#5f5d5a"/><stop offset=".695" stop-color="#605e5b"/><stop offset=".699" stop-color="#615f5b"/><stop offset=".703" stop-color="#62605c"/><stop offset=".707" stop-color="#63605c"/><stop offset=".711" stop-color="#63615d"/><stop offset=".715" stop-color="#64615e"/><stop offset=".719" stop-color="#64625e"/><stop offset=".723" stop-color="#66635f"/><stop offset=".727" stop-color="#66645f"/><stop offset=".73" stop-color="#666460"/><stop offset=".734" stop-color="#676561"/><stop offset=".738" stop-color="#686561"/><stop offset=".742" stop-color="#696662"/><stop offset=".746" stop-color="#696762"/><stop offset=".75" stop-color="#6a6863"/><stop offset=".754" stop-color="#6a6863"/><stop offset=".758" stop-color="#6b6863"/><stop offset=".762" stop-color="#6c6964"/><stop offset=".766" stop-color="#6d6a65"/><stop offset=".77" stop-color="#6d6b65"/><stop offset=".773" stop-color="#6e6b66"/><stop offset=".777" stop-color="#6f6c67"/><stop offset=".781" stop-color="#6f6c67"/><stop offset=".785" stop-color="#706d68"/><stop offset=".789" stop-color="#706e69"/><stop offset=".793" stop-color="#726e69"/><stop offset=".797" stop-color="#726f6a"/><stop offset=".801" stop-color="#736f6a"/><stop offset=".805" stop-color="#73706b"/><stop offset=".809" stop-color="#73716b"/><stop offset=".813" stop-color="#75716b"/><stop offset=".816" stop-color="#75726c"/><stop offset=".82" stop-color="#76736d"/><stop offset=".824" stop-color="#76746d"/><stop offset=".828" stop-color="#76746d"/><stop offset=".832" stop-color="#78746e"/><stop offset=".836" stop-color="#78756f"/><stop offset=".84" stop-color="#79766f"/><stop offset=".844" stop-color="#797670"/><stop offset=".848" stop-color="#797770"/><stop offset=".852" stop-color="#7b7771"/><stop offset=".855" stop-color="#7b7871"/><stop offset=".859" stop-color="#7b7872"/><stop offset=".863" stop-color="#7c7972"/><stop offset=".867" stop-color="#7d7973"/><stop offset=".871" stop-color="#7d7a73"/><stop offset=".875" stop-color="#7e7a73"/><stop offset=".879" stop-color="#7e7b74"/><stop offset=".883" stop-color="#7f7b75"/><stop offset=".887" stop-color="#807c75"/><stop offset=".891" stop-color="#807c75"/><stop offset=".895" stop-color="#807d76"/><stop offset=".898" stop-color="#817d77"/><stop offset=".902" stop-color="#817e77"/><stop offset=".906" stop-color="#827e77"/><stop offset=".91" stop-color="#837f78"/><stop offset=".914" stop-color="#837f78"/><stop offset=".918" stop-color="#838079"/><stop offset=".922" stop-color="#848079"/><stop offset=".926" stop-color="#848179"/><stop offset=".93" stop-color="#85827a"/><stop offset=".934" stop-color="#85827a"/><stop offset=".938" stop-color="#86827b"/><stop offset=".941" stop-color="#86827b"/><stop offset=".945" stop-color="#86837b"/><stop offset=".953" stop-color="#86837b"/><stop offset=".961" stop-color="#88847c"/><stop offset=".969" stop-color="#88857d"/><stop offset=".977" stop-color="#89857d"/><stop offset=".984" stop-color="#89857d"/><stop offset="1" stop-color="#89867e"/></linearGradient></defs><path d="M433.16 55.781c-.62.196-1 .758-.89 1.352 1.48 7.937 4.023 17.847 3.832 28.008-.157 8.296-1.227 16.765-3.836 24.464-.477 1.41.515 2.848 2.082 3.207 11.324 2.602 45.02 11.579 45.02 11.579 17.995-22.868 9.417-64.79 5.769-79.153-.555-2.183-2.278-8.023-2.82-9.699-.215-.672-.997-1.031-1.72-.805zm0 0" fill="#3a3d3a"/><g transform="translate(-20.281 -31.902)" clip-path="url(#a)"><g clip-path="url(#b)"><path d="M462.059 133.328l65.347 37.727 48.719-84.383-65.348-37.727zm0 0" fill="url(#c)"/></g></g><g transform="translate(-20.281 -31.902)" clip-path="url(#d)"><g clip-path="url(#e)"><path d="M467.633 135.719l82.418 47.586 52.3-90.586-82.421-47.582zm0 0" fill="url(#f)"/></g></g><path d="M39.012 102.625V70.168c0-4.164-.485-7.023-1.453-8.582-.97-1.563-2.746-2.344-5.329-2.344-.539 0-1.777.145-3.714.43v42.953zM10 116.137V47.453c1.758-.36 5.05-.75 9.879-1.183 4.824-.43 9.156-.645 12.996-.645s7.043.223 9.61.672c2.566.45 4.726 1.176 6.488 2.18 1.757 1.003 3.199 2.152 4.332 3.445 1.129 1.293 2 2.926 2.61 4.898 1.108 3.371 1.667 7.84 1.667 13.403v45.914zm0 0M67.11 93.371V46.7h18.46v32.082l-9.257 14.59zm0 0M143.277 46.7L141.77 78.78c-.18 3.77-.547 7.121-1.106 10.067-.555 2.941-1.543 5.957-2.96 9.043-1.415 3.086-3.247 5.757-5.49 8.02-2.241 2.26-5.237 4.323-8.991 6.187-3.75 1.867-8.153 3.285-13.211 4.254l-17.227 3.34v-13.837l10.82-2.046-11.41-57.11h18.352l5.871 31.762 1.344 18.031c3.05-2.55 4.828-6.55 5.328-12.008.074-.75.164-1.836.27-3.254.109-1.418.18-2.343.218-2.77l1.774-31.76zm0 0M149.031 46.863c4.38-.824 7.93-1.238 10.656-1.238 2.731 0 5.106.176 7.133.54 2.028.355 3.762.843 5.196 1.452 1.433.61 2.664 1.426 3.687 2.446 1.024 1.023 1.828 2.074 2.422 3.152.594 1.074 1.05 2.383 1.375 3.926.57 2.55.86 5.78.86 9.691v29.066a67.83 67.83 0 0 1-.755 9.957c-.503 3.375-1.007 5.942-1.507 7.696l-.754 2.586h-31.38v-13.512h15.126c.5-2.617.754-6.242.754-10.871V66.832c0-2.012-.457-3.723-1.375-5.14-.914-1.419-2.43-2.126-4.547-2.126-1.434 0-3.336.305-5.707.914l-1.184.27zm0 0M256.414 46.7v12.273c-5.312 1.937-7.965 6.441-7.965 13.511v43.653h-18.46V72.105c0-5.093 1.968-9.058 5.917-11.894h-25.84V46.699zm0 0M280.742 116.137h-18.465V46.703h18.465zm0 0M323.64 45.625c7.18 0 12.133 2.656 14.86 7.965 1.363 2.62 2.332 5.5 2.906 8.64.57 3.141.864 6.81.864 11.008v42.899h-27.782v-13.512h9.317V73.238c0-5.203-.215-8.453-.645-9.742-.613-1.867-1.348-3.016-2.207-3.45-.613-.284-1.355-.429-2.238-.429-.875 0-1.766.238-2.66.703-.903.465-1.653 1.02-2.266 1.668-1.254 1.328-2.242 2.762-2.96 4.305l-3.766 49.844h-18.461l3.77-44.782c.108-1.402.155-2.78.155-4.148 0-6.098-1.394-12.934-4.195-20.504h17.012c.75 1.613 1.414 3.945 1.988 6.996h.27c5.527-5.383 10.875-8.074 16.039-8.074M349.477 93.371V46.7h18.464v32.082l-9.257 14.59zm0 0M392.863 46.7h24.602v10.495l-8.883 32.297-5.273 26.645h-18.036l5.329-27.13 7.968-28.796h-24.226V32.813h18.52zm0 0" fill="#f8a119"/><path d="M538.598 29.02c0-4.688-3.801-8.485-8.485-8.485a8.486 8.486 0 1 0 0 16.969 8.485 8.485 0 0 0 8.485-8.484" fill="#3a3d3a"/><path d="M497.715 24.387l-8.38-3.012c-.042.344-.105.684-.105 1.04a8.487 8.487 0 0 0 16.973 0c0-.356-.062-.696-.105-1.04zm0 0" fill="#f8a119"/><path d="M497.715 10l-17.262 4.777 9.246 3.325 8.016 2.878 8.02-2.878 9.245-3.325zm0 0" fill="#3a3d3a"/></svg>